<svg width="178" height="151" viewBox="0 0 178 151" fill="none" xmlns="http://www.w3.org/2000/svg">
<path d="M97.6296 2.72251C97.9687 2.86712 98.3079 3.01173 98.6574 3.16072C102.867 4.97779 106.645 7.0059 110.13 9.95218C110.465 10.2131 110.801 10.4741 111.147 10.7429C118.538 16.6182 122.737 24.7972 125.13 33.5691C125.218 33.8574 125.307 34.1458 125.398 34.4429C127.853 45.6355 124.857 57.3519 118.63 66.8255C117.389 68.5281 116.074 70.1018 114.63 71.6453C114.405 71.9174 114.18 72.1895 113.948 72.4699C112.772 73.806 112.146 74.053 110.317 74.2962C108.63 74.0552 108.63 74.0552 107.661 73.5431C106.822 72.0692 106.98 70.8898 107.13 69.2354C108.008 67.9156 108.008 67.9156 109.192 66.6749C115.274 59.9205 118.344 51.9967 118.286 43.058C118.284 42.617 118.282 42.176 118.279 41.7216C118.119 32.4102 114.266 23.911 107.63 17.1818C103.42 13.4954 98.8987 11.0087 93.6296 8.98822C92.9634 8.72728 92.9634 8.72728 92.2838 8.46106C85.9832 6.40802 78.0069 7.15533 71.6296 8.50624C71.2022 8.59447 70.7749 8.68269 70.3346 8.77359C61.889 10.8571 54.7299 16.9874 50.1296 23.9295C45.0845 32.4295 43.4397 42.4192 45.8796 52.0348C47.5849 58.0255 50.4328 63.2148 54.991 67.6331C56.4236 69.0226 57.8092 70.4493 59.1906 71.8859C62.6702 75.4973 66.2435 79.0006 69.8952 82.4502C70.3434 82.8751 70.7916 83.3 71.2535 83.7377C73.1017 85.489 74.9504 87.2396 76.8105 88.9792C78.1893 90.2706 79.5585 91.5708 80.9264 92.873C81.3497 93.2646 81.7731 93.6562 82.2092 94.0597C82.7861 94.6132 82.7861 94.6132 83.3747 95.1778C83.7147 95.4977 84.0548 95.8176 84.4051 96.1473C85.3688 97.5345 85.316 98.4449 85.1296 100.082C84.0997 101.591 83.4391 101.944 81.611 102.334C78.5919 102.248 76.6562 99.5604 74.7077 97.6118C74.2437 97.161 73.7798 96.7101 73.3017 96.2456C72.0687 95.0469 70.8468 93.8382 69.6267 92.6273C68.638 91.6494 67.642 90.6786 66.6454 89.7081C58.4923 81.7682 58.4923 81.7682 55.4037 78.2745C54.2755 77.0424 53.0566 75.9079 51.8327 74.765C44.7715 68.1675 40.676 61.03 38.1296 51.8842C38.0424 51.6046 37.9552 51.3249 37.8654 51.0368C35.4812 40.1143 38.1697 28.9026 44.1296 19.5917C45.2127 18.0643 46.3755 16.6531 47.6296 15.2539C48.0733 14.7227 48.0733 14.7227 48.526 14.1808C54.5016 7.26854 64.453 1.44207 73.8814 0.410411C81.956 -0.222172 90.1405 -0.547423 97.6296 2.72251Z" fill="#02567A"/>
<path d="M80.7427 22.3157C81.8798 22.3053 83.0169 22.2889 84.1538 22.2663C85.8036 22.2339 87.4525 22.2208 89.1026 22.2116C89.6059 22.1982 90.1092 22.1848 90.6277 22.171C94.1914 22.1809 96.6832 22.9988 99.296 25.4028C100.763 27.6646 101.513 29.9736 101.796 32.6325C102.167 32.5927 102.539 32.553 102.921 32.512C104.296 32.6325 104.296 32.6325 105.452 33.4157C106.532 34.8808 106.487 35.6867 106.296 37.4523C106.11 37.9443 106.11 37.9443 105.921 38.4463C105.665 39.5036 105.665 39.5036 106.734 40.5851C107.084 40.9827 107.435 41.3804 107.796 41.7901C108.795 44.5414 108.472 47.7128 108.515 50.5861C108.538 51.2118 108.561 51.8374 108.584 52.482C108.625 55.8736 108.556 58.2768 106.111 60.8473C103.547 63.0618 101.6 63.2562 98.2355 63.1646C96.2677 62.9356 95.2289 62.3813 93.796 61.0692C93.5327 60.5767 93.2693 60.0842 92.998 59.5767C91.718 58.0865 91.6198 57.9728 89.7727 57.7954C88.9533 57.7732 88.1333 57.7678 87.3136 57.7763C86.8784 57.7724 86.4433 57.7684 85.9949 57.7644C85.0758 57.7603 84.1566 57.7636 83.2375 57.7738C81.8329 57.7856 80.4318 57.7641 79.0275 57.7396C78.1332 57.7397 77.239 57.7419 76.3448 57.7461C75.9265 57.7378 75.5082 57.7295 75.0773 57.7209C72.8171 57.7554 72.8171 57.7554 71.0011 58.925C70.3287 59.815 70.3287 59.815 69.8008 60.7387C69.0333 61.9739 68.1519 62.4423 66.796 62.9971C64.2374 63.3998 61.5061 63.5922 59.1476 62.4322C57.0123 60.7258 55.4428 58.808 55.086 56.1037C55.0407 52.7692 55.0407 52.7692 55.0455 51.3152C55.046 50.2908 55.0252 49.2682 55.003 48.244C54.9705 44.5129 55.1541 42.2021 57.796 39.3802C57.4584 38.1248 57.4584 38.1248 56.796 36.9703C56.8659 35.2855 56.9667 34.4185 58.171 33.1747C59.4775 32.545 60.3537 32.5166 61.796 32.6325C61.8373 32.2448 61.8785 31.8571 61.921 31.4577C62.5362 28.6409 63.4687 25.9338 65.7335 23.9569C69.8223 21.4344 76.0458 22.3481 80.7427 22.3157ZM70.296 29.2586C68.6792 32.6478 68.6792 32.6478 67.796 36.4883C77.036 36.4883 86.276 36.4883 95.796 36.4883C94.9128 32.6478 94.9128 32.6478 93.296 29.2586C85.706 29.2586 78.116 29.2586 70.296 29.2586ZM62.841 43.6563C62.1548 44.9478 62.1245 45.8473 62.1495 47.2951C62.1544 47.7891 62.1592 48.283 62.1642 48.7919C62.1767 49.3045 62.1893 49.8171 62.2023 50.3452C62.209 50.8652 62.2158 51.3852 62.2228 51.921C62.2404 53.2034 62.2651 54.4853 62.296 55.7674C63.121 55.9265 63.946 56.0855 64.796 56.2494C65.5186 54.1161 65.5186 54.1161 65.796 51.9116C69.8206 51.8893 73.8452 51.8721 77.8699 51.8616C79.7386 51.8566 81.6073 51.8498 83.4759 51.8389C85.2785 51.8284 87.0809 51.8226 88.8835 51.8201C89.5721 51.8183 90.2606 51.8149 90.9492 51.8097C91.9117 51.8027 92.8742 51.8023 93.8368 51.8021C94.3853 51.8 94.9338 51.7979 95.4989 51.7957C96.796 51.9116 96.796 51.9116 97.796 52.8755C98.1556 53.9926 98.4915 55.1172 98.796 56.2494C99.621 56.0903 100.446 55.9313 101.296 55.7674C101.34 53.9601 101.366 52.1528 101.39 50.3452C101.402 49.8326 101.415 49.32 101.428 48.7919C101.433 48.298 101.438 47.804 101.442 47.2951C101.45 46.8408 101.458 46.3865 101.466 45.9184C101.256 44.3881 100.94 43.8349 99.796 42.754C98.2039 42.4597 98.2039 42.4597 96.3448 42.5046C95.9959 42.5012 95.647 42.4978 95.2874 42.4943C94.1338 42.4858 92.9809 42.4914 91.8273 42.498C91.0259 42.4967 90.2245 42.4948 89.4231 42.4924C87.7434 42.4895 86.064 42.4937 84.3844 42.5027C82.2304 42.5137 80.0769 42.5073 77.9229 42.4958C76.2681 42.4888 74.6133 42.491 72.9585 42.496C72.1642 42.4973 71.37 42.4957 70.5758 42.4912C69.466 42.4864 68.3569 42.4938 67.2472 42.5046C66.6155 42.5061 65.9838 42.5076 65.333 42.5092C63.7615 42.6139 63.7615 42.6139 62.841 43.6563Z" fill="#015578"/>
<path d="M105.63 76.947C106.567 77.4892 106.567 77.4892 107.13 78.3929C107.369 80.013 107.446 81.2345 106.582 82.687C105.802 83.6723 104.982 84.6038 104.13 85.5322C103.532 86.2093 102.935 86.8864 102.338 87.5637C102.046 87.8898 101.754 88.2159 101.453 88.5519C100.362 89.7797 99.3232 91.0401 98.2858 92.31C95.9091 95.2044 95.9091 95.2044 94.317 95.5333C91.7392 95.1191 90.4245 93.6385 88.6295 91.8883C88.2828 91.5702 87.936 91.2521 87.5787 90.9244C85.9179 89.2915 85.1553 88.5387 85.0358 86.195C85.6295 84.6587 85.6295 84.6587 86.4733 83.6947C88.1071 83.0136 88.9438 83.1641 90.6295 83.6947C92.067 84.9298 92.067 84.9298 93.1295 86.1046C95.1209 85.4647 95.5975 84.5123 96.817 82.8814C97.2169 82.3538 97.6173 81.8267 98.0182 81.2999C98.3849 80.8177 98.7517 80.3356 99.1295 79.8389C102.13 76.1209 102.13 76.1209 105.63 76.947Z" fill="#02577B"/>
<path d="M73.1308 43.6388C74.7558 44.4521 74.7558 44.4521 75.6308 45.5667C75.9294 47.0058 75.7767 47.6954 75.0996 49.0008C73.9055 50.1147 73.0365 50.1557 71.4062 50.1681C71.0679 50.1606 70.7295 50.1532 70.3808 50.1455C69.8733 50.1567 69.8733 50.1567 69.3555 50.1681C67.7373 50.1558 66.8565 50.1106 65.6601 49.0177C64.9369 47.5951 64.8894 46.6471 65.1308 45.0847C67.356 42.9398 70.1946 43.2912 73.1308 43.6388Z" fill="#03577B"/>
<path d="M93.8496 43.458C94.4161 43.4543 94.9827 43.4506 95.5664 43.4467C97.2541 43.6539 97.9639 43.9054 99.1308 45.0847C99.4971 47.9093 99.4971 47.9093 98.5859 49.2756C97.1298 50.2343 95.8712 50.0957 94.1308 50.0852C93.5121 50.0889 92.8933 50.0927 92.2558 50.0965C90.6308 49.9045 90.6308 49.9045 89.6738 49.2756C88.7542 47.8916 88.9543 46.6727 89.1308 45.0847C90.3517 43.305 91.7589 43.4443 93.8496 43.458Z" fill="#015679"/>
<path d="M67.1309 49.9045C77.0309 49.9045 86.9309 49.9045 97.1309 49.9045C97.1309 50.2226 97.1309 50.5407 97.1309 50.8684C93.367 50.8907 89.6032 50.9079 85.8393 50.9184C84.0916 50.9234 82.344 50.9302 80.5964 50.9412C78.5884 50.9536 76.5804 50.9583 74.5723 50.9626C73.6285 50.97 73.6285 50.97 72.6657 50.9776C72.0851 50.9777 71.5046 50.9778 70.9065 50.9779C70.3935 50.98 69.8806 50.9821 69.3521 50.9844C68.1309 50.8684 68.1309 50.8684 67.1309 49.9045Z" fill="#136993"/>
<path d="M64 42.414C75.88 42.414 87.76 42.414 100 42.414C100 42.5731 100 42.7321 100 42.896C88.12 42.896 76.24 42.896 64 42.896C64 42.7369 64 42.5779 64 42.414Z" fill="#0D648E"/>
<path d="M168.521 110.809C171.957 113.947 174.005 117.222 174.331 121.817C174.392 125.247 174.17 128.352 173.208 131.654C174.528 132.609 175.848 133.563 177.208 134.546C177.026 137.474 176.444 138.896 174.208 140.812C172.2 140.894 171.326 140.409 169.677 139.306C168.336 138.302 168.336 138.302 167.052 138.402C165.758 138.833 165.758 138.833 164.798 139.353C161.043 141.216 157.102 141.426 152.976 140.55C148.224 138.959 144.606 135.55 141.976 131.487C139.921 127.265 140.022 122.173 141.427 117.767C143.478 113.106 147.455 109.612 152.208 107.556C158.148 106.104 163.532 107.603 168.521 110.809ZM151.708 117.195C151.234 117.563 150.76 117.931 150.271 118.31C148.569 120.375 148.928 123.047 148.925 125.554C149.338 128.126 150.515 129.605 152.49 131.323C155.02 133.011 157.737 132.898 160.708 132.618C163.255 131.573 164.521 129.914 165.749 127.592C166.562 125.398 166.603 123.337 166.208 121.051C164.949 118.529 162.823 116.527 160.208 115.267C156.845 114.944 154.321 114.916 151.708 117.195Z" fill="#62BBFE"/>
<path d="M91.2084 118.159C91.4044 117.924 91.6003 117.689 91.8022 117.447C92.9865 116.488 93.6785 116.519 95.2084 116.532C95.6416 116.529 96.0747 116.525 96.5209 116.521C97.9623 116.754 98.3189 117.061 99.2084 118.159C99.4023 119.182 99.4023 119.182 99.4105 120.378C99.4168 120.827 99.4231 121.276 99.4297 121.739C99.4282 122.224 99.4267 122.709 99.4252 123.209C99.4278 123.71 99.4305 124.211 99.4332 124.727C99.4364 125.79 99.4357 126.852 99.4315 127.914C99.4272 129.53 99.4415 131.144 99.4575 132.76C99.4583 133.793 99.458 134.827 99.4565 135.86C99.4649 136.579 99.4649 136.579 99.4735 137.312C99.4365 140.929 98.6538 143.872 96.2963 146.743C93.4026 149.093 90.7557 150.236 86.9897 150.632C83.2469 150.253 79.6992 149.451 77.2084 146.596C77.138 144.66 77.4297 143.635 78.5209 142.017C79.7084 141.294 79.7084 141.294 81.4584 141.354C83.2084 141.776 83.2084 141.776 84.2084 142.288C85.7867 143.001 86.9963 142.946 88.7084 142.74C90.1297 141.51 90.6635 140.817 90.8334 138.974C90.7922 138.627 90.7509 138.279 90.7084 137.92C90.4094 138.159 90.1103 138.397 89.8022 138.643C87.162 139.841 84.3347 139.922 81.5678 138.976C78.4278 137.294 76.3338 134.427 75.2084 131.172C74.8804 127.617 74.6115 124.328 76.9291 121.379C81.1842 116.958 85.3825 115.351 91.2084 118.159ZM83.9897 125.178C82.8933 126.827 82.8934 127.803 83.2084 129.727C84.3514 131.206 85.0859 131.986 86.9584 132.438C88.8309 131.986 89.5655 131.206 90.7084 129.727C91.0235 127.803 91.0235 126.827 89.9272 125.178C87.8688 123.906 86.048 123.906 83.9897 125.178Z" fill="#62BBFE"/>
<path d="M31.7084 116.713C32.2344 116.972 32.7603 117.23 33.3022 117.496C34.6385 118.322 34.6385 118.322 35.8334 117.798C36.1222 117.599 36.4109 117.4 36.7084 117.195C38.2736 116.441 40.0038 116.453 41.7084 116.713C42.7565 117.165 42.7565 117.165 43.7084 118.159C44.0212 119.655 43.9884 121.139 43.974 122.661C43.976 123.103 43.9779 123.546 43.9798 124.002C43.9812 124.938 43.9775 125.875 43.9692 126.811C43.9585 128.244 43.969 129.675 43.9818 131.108C43.9805 132.017 43.978 132.927 43.974 133.837C43.9781 134.265 43.9821 134.693 43.9863 135.134C43.9398 138.086 43.9398 138.086 42.8012 139.64C41.2162 140.641 40.0628 140.522 38.2084 140.33C36.9897 139.848 36.9897 139.848 36.2084 139.366C36.2084 139.048 36.2084 138.73 36.2084 138.402C35.8475 138.641 35.4865 138.879 35.1147 139.125C32.514 140.376 29.5252 140.15 26.7084 139.848C23.7254 138.57 21.0834 135.751 19.6186 132.927C18.655 129.937 18.6197 126.211 19.9272 123.31C22.5026 119.134 26.609 116.282 31.7084 116.713ZM27.7084 126.353C27.0731 128.334 26.9762 129.269 27.9272 131.142C29.4703 132.34 30.3198 132.468 32.2553 132.336C33.3106 132.169 33.3106 132.169 34.4584 131.383C35.5134 129.731 35.5209 128.742 35.2084 126.835C34.065 125.355 33.3464 124.563 31.4584 124.154C29.7207 124.531 28.9174 125.09 27.7084 126.353Z" fill="#62BBFE"/>
<path d="M120.958 116.984C123.204 118.283 125.038 120.241 126.208 122.497C126.677 127.512 126.677 127.512 125.271 129.817C123.594 131.195 122.655 131.231 120.486 131.22C119.948 131.218 119.409 131.216 118.855 131.215C118.291 131.211 117.727 131.207 117.146 131.203C116.578 131.2 116.01 131.198 115.425 131.196C114.02 131.19 112.614 131.182 111.208 131.172C111.208 131.65 111.208 132.127 111.208 132.618C114.017 133.701 116.552 133.811 119.505 133.404C122.919 132.934 122.919 132.934 124.521 133.853C125.407 135.367 125.505 136.207 125.208 137.92C123.766 139.923 122.098 140.264 119.708 140.812C115.424 141.171 110.827 141.459 107.208 138.884C104.561 136.528 102.435 133.939 101.992 130.408C101.987 126.064 102.105 123.201 105.238 119.999C109.437 116.169 115.407 114.577 120.958 116.984ZM111.958 124.334C111.067 125.374 111.067 125.374 111.208 126.835C113.518 126.835 115.828 126.835 118.208 126.835C118.503 124.482 118.503 124.482 117.208 123.461C114.381 123.15 114.381 123.15 111.958 124.334Z" fill="#5EB9FE"/>
<path d="M52.5932 116.534C54.2005 116.792 55.0942 117.532 56.2084 118.641C56.6106 118.323 57.0128 118.005 57.4272 117.677C59.4456 116.385 61.3576 116.375 63.7084 116.713C67.4711 118.108 69.8912 120.397 71.6205 123.86C72.5675 126.524 72.505 129.319 72.5209 132.106C72.5263 132.638 72.5316 133.169 72.5372 133.716C72.4964 135.956 72.4531 137.495 71.3139 139.475C69.801 140.645 69.0184 140.592 67.1596 140.475C66.0055 140.299 65.1598 140.026 64.2084 139.366C63.5529 138.102 63.6367 137.137 63.6205 135.723C63.6086 135.189 63.5967 134.655 63.5844 134.105C63.5629 132.975 63.5473 131.846 63.5375 130.716C63.5237 130.181 63.5098 129.647 63.4955 129.096C63.4882 128.605 63.4809 128.114 63.4734 127.608C63.3226 126.298 63.3226 126.298 62.2842 125.471C60.8064 124.696 59.8668 124.674 58.2084 124.907C56.881 125.906 56.2805 126.482 55.9513 128.092C55.9452 128.79 55.9452 128.79 55.9389 129.502C55.9273 130.012 55.9157 130.521 55.9037 131.045C55.9012 131.574 55.8986 132.103 55.8959 132.649C55.8832 133.699 55.8664 134.748 55.8451 135.798C55.8422 136.263 55.8392 136.728 55.8361 137.207C55.7084 138.402 55.7084 138.402 54.7084 139.848C53.4018 140.268 52.5549 140.421 51.2084 140.451C50.8681 140.463 50.5278 140.475 50.1772 140.488C48.8921 140.278 48.5185 139.855 47.7084 138.884C47.5179 137.933 47.5179 137.933 47.5143 136.84C47.5096 136.43 47.5049 136.02 47.5 135.598C47.503 135.156 47.5061 134.715 47.5092 134.26C47.5078 133.806 47.5063 133.351 47.5049 132.883C47.5038 131.922 47.5066 130.961 47.5129 130C47.5209 128.527 47.5129 127.055 47.5033 125.583C47.5043 124.649 47.5063 123.716 47.5092 122.783C47.5062 122.342 47.5031 121.9 47.5 121.446C47.5047 121.036 47.5095 120.625 47.5143 120.203C47.5155 119.842 47.5167 119.482 47.5179 119.11C48.054 116.434 50.2286 116.471 52.5932 116.534Z" fill="#57B4FA"/>
<path d="M132.005 107.316C132.725 107.33 132.725 107.33 133.458 107.345C133.938 107.345 134.417 107.346 134.912 107.347C136.442 107.593 136.797 107.813 137.708 109.002C137.896 110.282 137.896 110.282 137.895 111.842C137.899 112.717 137.899 112.717 137.904 113.611C137.899 114.242 137.895 114.873 137.89 115.523C137.89 116.177 137.89 116.831 137.891 117.484C137.891 118.854 137.886 120.223 137.877 121.592C137.865 123.348 137.865 125.103 137.868 126.858C137.87 128.208 137.867 129.557 137.862 130.907C137.859 131.869 137.86 132.831 137.86 133.793C137.855 134.377 137.851 134.96 137.846 135.562C137.843 136.077 137.841 136.591 137.839 137.122C137.708 138.402 137.708 138.402 136.708 139.848C134.901 140.429 133.071 140.792 131.208 140.33C129.456 138.587 128.958 137.479 128.958 135.067C128.953 134.504 128.948 133.941 128.943 133.361C128.949 132.757 128.955 132.154 128.96 131.532C128.96 130.909 128.959 130.286 128.958 129.644C128.957 128.327 128.964 127.011 128.975 125.695C128.989 124.01 128.988 122.325 128.982 120.64C128.977 119.029 128.985 117.418 128.992 115.808C128.99 115.203 128.989 114.599 128.987 113.976C128.997 113.134 128.997 113.134 129.006 112.275C129.009 111.781 129.012 111.287 129.015 110.779C129.307 108.822 129.939 107.697 132.005 107.316Z" fill="#62BAFE"/>
<path d="M5.09319 116.566C6.56039 116.759 7.54582 117.291 8.70842 118.159C9.01779 117.92 9.32717 117.682 9.64592 117.436C12.3052 116.206 15.002 116.318 17.7709 117.225C18.7084 118.159 18.7084 118.159 18.9584 119.756C18.687 121.685 18.4112 122.854 17.2084 124.425C15.3959 124.877 15.3959 124.877 13.7084 124.907C13.5434 124.748 13.3784 124.589 13.2084 124.425C10.6959 124.562 10.6959 124.562 8.70842 125.871C8.5389 127.157 8.5389 127.157 8.53654 128.655C8.51431 129.489 8.51431 129.489 8.49162 130.339C8.48067 130.922 8.46971 131.506 8.45842 132.106C8.43676 133.255 8.41091 134.405 8.38029 135.554C8.37095 136.065 8.3616 136.576 8.35197 137.103C8.20842 138.402 8.20842 138.402 7.20842 139.848C5.90178 140.268 5.05486 140.421 3.70842 140.451C3.36811 140.463 3.02779 140.475 2.67717 140.488C1.39208 140.278 1.01848 139.855 0.20842 138.884C0.0179443 137.933 0.0179443 137.933 0.014328 136.84C0.00959976 136.43 0.00487152 136.02 0 135.598C0.00303634 135.156 0.00607269 134.715 0.00920105 134.26C0.00776596 133.806 0.00633087 133.351 0.00485229 132.883C0.00383157 131.922 0.00659933 130.961 0.0128632 130C0.0208894 128.527 0.0129401 127.055 0.00334167 125.583C0.00433288 124.649 0.0062547 123.716 0.00920105 122.783C0.0061647 122.342 0.00312835 121.9 0 121.446C0.00472824 121.036 0.00945648 120.625 0.014328 120.203C0.0155214 119.842 0.0167148 119.482 0.0179443 119.11C0.557555 116.416 2.72547 116.499 5.09319 116.566Z" fill="#62BBFE"/>
</svg>
