<svg width="233" height="74" viewBox="0 0 233 74" fill="none" xmlns="http://www.w3.org/2000/svg">
<path d="M214.817 1.69814C215.029 1.78833 215.24 1.87853 215.458 1.97146C218.084 3.10484 220.441 4.36985 222.614 6.20756C222.823 6.37032 223.033 6.53308 223.248 6.70078C227.858 10.3654 230.478 15.467 231.97 20.9383C232.025 21.1182 232.08 21.2981 232.137 21.4834C233.669 28.4646 231.8 35.7726 227.916 41.6817C227.142 42.7436 226.322 43.7252 225.421 44.6879C225.28 44.8577 225.14 45.0274 224.995 45.2023C224.262 46.0357 223.872 46.1897 222.731 46.3414C221.678 46.1911 221.678 46.1911 221.074 45.8717C220.551 44.9523 220.649 44.2167 220.743 43.1848C221.291 42.3616 221.291 42.3616 222.029 41.5877C225.823 37.3747 227.738 32.4324 227.701 26.8569C227.7 26.5819 227.698 26.3068 227.697 26.0234C227.597 20.2155 225.194 14.9142 221.054 10.717C218.429 8.41759 215.609 6.86653 212.322 5.6063C211.907 5.44354 211.907 5.44354 211.483 5.27749C207.553 3.99693 202.578 4.46306 198.6 5.30567C198.333 5.3607 198.067 5.41573 197.792 5.47243C192.524 6.772 188.059 10.5957 185.189 14.9258C182.043 20.2275 181.017 26.4585 182.539 32.4561C183.602 36.1928 185.379 39.4295 188.222 42.1854C189.115 43.0521 189.979 43.942 190.841 44.838C193.011 47.0906 195.24 49.2757 197.518 51.4274C197.798 51.6924 198.077 51.9574 198.365 52.2304C199.518 53.3228 200.671 54.4147 201.831 55.4998C202.691 56.3053 203.545 57.1163 204.399 57.9285C204.663 58.1728 204.927 58.417 205.199 58.6687C205.559 59.0139 205.559 59.0139 205.926 59.3661C206.138 59.5656 206.35 59.7652 206.568 59.9708C207.169 60.836 207.137 61.4039 207.02 62.425C206.378 63.3662 205.966 63.5863 204.826 63.8295C202.943 63.7763 201.735 62.0996 200.52 60.8843C200.23 60.6031 199.941 60.3218 199.643 60.0321C198.874 59.2844 198.112 58.5305 197.351 57.7752C196.734 57.1653 196.113 56.5597 195.491 55.9544C190.406 51.002 190.406 51.002 188.479 48.8229C187.775 48.0543 187.015 47.3467 186.252 46.6338C181.847 42.5187 179.293 38.0668 177.705 32.3622C177.65 32.1878 177.596 32.0133 177.54 31.8336C176.053 25.0209 177.73 18.0277 181.447 12.2201C182.123 11.2674 182.848 10.3872 183.63 9.51447C183.907 9.18313 183.907 9.18313 184.189 8.8451C187.916 4.53367 194.123 0.899476 200.004 0.255989C205.041 -0.138577 210.146 -0.341449 214.817 1.69814Z" fill="#02567A"/>
<path d="M204.284 13.9192C204.993 13.9127 205.702 13.9024 206.412 13.8883C207.441 13.8681 208.469 13.8599 209.498 13.8542C209.812 13.8458 210.126 13.8375 210.45 13.8289C212.673 13.835 214.227 14.3452 215.856 15.8447C216.771 17.2554 217.239 18.6957 217.416 20.3541C217.647 20.3293 217.879 20.3045 218.117 20.279C218.975 20.3541 218.975 20.3541 219.696 20.8426C220.37 21.7564 220.342 22.2591 220.223 23.3604C220.107 23.6673 220.107 23.6673 219.989 23.9804C219.829 24.6399 219.829 24.6399 220.495 25.3145C220.714 25.5625 220.933 25.8105 221.158 26.066C221.781 27.7822 221.58 29.7603 221.607 31.5525C221.621 31.9427 221.635 32.333 221.65 32.7351C221.675 34.8505 221.632 36.3494 220.107 37.9528C218.508 39.3341 217.294 39.4553 215.195 39.3982C213.968 39.2553 213.32 38.9096 212.426 38.0912C212.262 37.784 212.097 37.4768 211.928 37.1603C211.13 36.2308 211.068 36.1598 209.916 36.0492C209.405 36.0353 208.894 36.032 208.383 36.0373C208.111 36.0348 207.84 36.0324 207.56 36.0299C206.987 36.0273 206.413 36.0294 205.84 36.0357C204.964 36.0431 204.09 36.0297 203.214 36.0144C202.656 36.0145 202.099 36.0158 201.541 36.0185C201.28 36.0133 201.019 36.0081 200.75 36.0027C199.341 36.0242 199.341 36.0242 198.208 36.7538C197.788 37.3089 197.788 37.3089 197.459 37.8851C196.98 38.6555 196.431 38.9476 195.585 39.2937C193.989 39.5449 192.285 39.6649 190.814 38.9414C189.482 37.877 188.503 36.6808 188.281 34.994C188.253 32.9141 188.253 32.9141 188.256 32.0073C188.256 31.3683 188.243 30.7304 188.229 30.0916C188.209 27.7644 188.323 26.3231 189.971 24.5629C189.761 23.7799 189.761 23.7799 189.348 23.0598C189.391 22.0089 189.454 21.4681 190.205 20.6923C191.02 20.2995 191.567 20.2818 192.466 20.3541C192.492 20.1123 192.518 19.8705 192.544 19.6213C192.928 17.8644 193.51 16.1759 194.922 14.9428C197.473 13.3694 201.354 13.9393 204.284 13.9192ZM197.768 18.2497C196.76 20.3637 196.76 20.3637 196.209 22.7591C201.972 22.7591 207.735 22.7591 213.673 22.7591C213.122 20.3637 213.122 20.3637 212.114 18.2497C207.38 18.2497 202.646 18.2497 197.768 18.2497ZM193.118 27.2301C192.69 28.0356 192.671 28.5967 192.687 29.4998C192.69 29.8079 192.693 30.116 192.696 30.4334C192.704 30.7531 192.712 31.0728 192.72 31.4022C192.724 31.7266 192.728 32.0509 192.732 32.3851C192.743 33.185 192.759 33.9845 192.778 34.7843C193.293 34.8835 193.807 34.9827 194.337 35.0849C194.788 33.7543 194.788 33.7543 194.961 32.3792C197.471 32.3653 199.982 32.3546 202.492 32.3481C203.658 32.3449 204.823 32.3407 205.989 32.3339C207.113 32.3274 208.237 32.3238 209.362 32.3222C209.791 32.3211 210.221 32.3189 210.65 32.3157C211.251 32.3113 211.851 32.311 212.451 32.311C212.793 32.3096 213.136 32.3083 213.488 32.3069C214.297 32.3792 214.297 32.3792 214.921 32.9805C215.145 33.6772 215.355 34.3787 215.545 35.0849C216.059 34.9857 216.574 34.8865 217.104 34.7843C217.131 33.6569 217.148 32.5297 217.162 31.4022C217.17 31.0825 217.178 30.7628 217.186 30.4334C217.189 30.1253 217.192 29.8172 217.195 29.4998C217.2 29.2164 217.205 28.933 217.21 28.6411C217.079 27.6866 216.882 27.3415 216.168 26.6673C215.175 26.4837 215.175 26.4837 214.016 26.5117C213.798 26.5096 213.58 26.5075 213.356 26.5053C212.637 26.5 211.917 26.5035 211.198 26.5076C210.698 26.5068 210.198 26.5056 209.698 26.5041C208.651 26.5023 207.603 26.5049 206.555 26.5105C205.212 26.5174 203.869 26.5134 202.525 26.5062C201.493 26.5019 200.461 26.5033 199.429 26.5064C198.933 26.5072 198.438 26.5062 197.943 26.5034C197.25 26.5004 196.559 26.505 195.866 26.5117C195.472 26.5127 195.078 26.5136 194.672 26.5146C193.692 26.5799 193.692 26.5799 193.118 27.2301Z" fill="#015578"/>
<path d="M219.807 47.9948C220.392 48.3331 220.392 48.3331 220.743 48.8967C220.892 49.9072 220.94 50.6691 220.401 51.5751C219.914 52.1897 219.403 52.7707 218.871 53.3498C218.499 53.7721 218.126 54.1944 217.754 54.6169C217.572 54.8203 217.389 55.0237 217.202 55.2333C216.521 55.9991 215.873 56.7853 215.226 57.5774C213.744 59.3827 213.744 59.3827 212.751 59.5878C211.143 59.3295 210.323 58.406 209.203 57.3143C208.987 57.1159 208.771 56.9175 208.548 56.7131C207.512 55.6946 207.036 55.225 206.962 53.7631C207.332 52.8049 207.332 52.8049 207.858 52.2036C208.878 51.7788 209.399 51.8727 210.451 52.2036C211.347 52.974 211.347 52.974 212.01 53.7068C213.252 53.3077 213.55 52.7136 214.31 51.6963C214.56 51.3673 214.809 51.0385 215.059 50.7099C215.288 50.4092 215.517 50.1085 215.753 49.7986C217.624 47.4796 217.624 47.4796 219.807 47.9948Z" fill="#02577B"/>
<path d="M199.536 27.2192C200.55 27.7265 200.55 27.7265 201.096 28.4217C201.282 29.3193 201.187 29.7495 200.764 30.5637C200.019 31.2585 199.477 31.284 198.461 31.2918C198.249 31.2871 198.038 31.2824 197.821 31.2777C197.504 31.2846 197.504 31.2846 197.181 31.2918C196.172 31.2841 195.623 31.2559 194.876 30.5742C194.425 29.6869 194.396 29.0956 194.546 28.1211C195.934 26.7832 197.705 27.0024 199.536 27.2192Z" fill="#03577B"/>
<path d="M212.459 27.1065C212.813 27.1041 213.166 27.1018 213.53 27.0994C214.583 27.2286 215.026 27.3855 215.753 28.1211C215.982 29.8829 215.982 29.8829 215.414 30.7351C214.505 31.3331 213.72 31.2466 212.635 31.2401C212.249 31.2424 211.863 31.2448 211.465 31.2472C210.452 31.1274 210.452 31.1274 209.855 30.7351C209.281 29.8719 209.406 29.1116 209.516 28.1211C210.278 27.011 211.155 27.0979 212.459 27.1065Z" fill="#015679"/>
<path d="M193.841 26.4553C201.251 26.4553 208.661 26.4553 216.296 26.4553C216.296 26.5545 216.296 26.6537 216.296 26.7559C208.886 26.7559 201.476 26.7559 193.841 26.7559C193.841 26.6567 193.841 26.5575 193.841 26.4553Z" fill="#0D648E"/>
<path d="M168.521 33.8089C171.957 36.9473 174.005 40.2225 174.331 44.8172C174.392 48.2469 174.17 51.3516 173.208 54.6544C174.528 55.6088 175.848 56.5631 177.208 57.5463C177.026 60.4739 176.444 61.8965 174.208 63.812C172.2 63.8944 171.326 63.4088 169.677 62.3058C168.336 61.3022 168.336 61.3022 167.052 61.4021C165.758 61.8334 165.758 61.8334 164.798 62.3529C161.043 64.2163 157.102 64.4264 152.976 63.5503C148.224 61.959 144.606 58.5498 141.976 54.4869C139.921 50.2647 140.022 45.1729 141.427 40.7675C143.478 36.1064 147.455 32.6115 152.208 30.5556C158.148 29.1043 163.532 30.603 168.521 33.8089ZM151.708 40.1951C151.234 40.5629 150.76 40.9307 150.271 41.3097C148.569 43.3751 148.928 46.0473 148.925 48.5544C149.338 51.1256 150.515 52.6052 152.49 54.3231C155.02 56.0115 157.737 55.8979 160.708 55.6184C163.255 54.5728 164.521 52.914 165.749 50.5915C166.562 48.398 166.603 46.3367 166.208 44.0509C164.949 41.5291 162.823 39.5274 160.208 38.2672C156.845 37.9441 154.321 37.9163 151.708 40.1951Z" fill="#62BBFE"/>
<path d="M91.2084 41.1591C91.4044 40.9242 91.6003 40.6894 91.8022 40.4474C92.9865 39.4879 93.6785 39.5192 95.2084 39.5324C95.6416 39.5287 96.0747 39.525 96.5209 39.5211C97.9623 39.7542 98.3189 40.0612 99.2084 41.1591C99.4023 42.1821 99.4023 42.1821 99.4105 43.3781C99.4168 43.8272 99.4231 44.2763 99.4297 44.7389C99.4282 45.2239 99.4267 45.7089 99.4252 46.2086C99.4278 46.7097 99.4305 47.2109 99.4332 47.7273C99.4364 48.7896 99.4357 49.8519 99.4315 50.9142C99.4272 52.5296 99.4415 54.1442 99.4575 55.7596C99.4583 56.7932 99.458 57.8268 99.4565 58.8605C99.4649 59.5791 99.4649 59.5791 99.4735 60.3124C99.4365 63.9294 98.6538 66.8716 96.2963 69.7426C93.4026 72.0934 90.7557 73.2363 86.9897 73.6323C83.2469 73.2525 79.6992 72.451 77.2084 69.5958C77.138 67.6605 77.4297 66.6353 78.5209 65.017C79.7084 64.294 79.7084 64.294 81.4584 64.3543C83.2084 64.776 83.2084 64.776 84.2084 65.2881C85.7867 66.0012 86.9963 65.9462 88.7084 65.7399C90.1297 64.5104 90.6635 63.817 90.8334 61.9745C90.7922 61.6266 90.7509 61.2786 90.7084 60.9202C90.4094 61.1587 90.1103 61.3973 89.8022 61.6431C87.162 62.8408 84.3347 62.9217 81.5678 61.9764C78.4278 60.2941 76.3338 57.4269 75.2084 54.1725C74.8804 50.617 74.6115 47.3278 76.9291 44.3785C81.1842 39.9581 85.3825 38.3511 91.2084 41.1591ZM83.9897 48.1779C82.8933 49.8266 82.8934 50.8032 83.2084 52.7265C84.3514 54.2061 85.0859 54.9864 86.9584 55.4377C88.8309 54.9864 89.5655 54.2061 90.7084 52.7265C91.0235 50.8032 91.0235 49.8266 89.9272 48.1779C87.8688 46.906 86.048 46.906 83.9897 48.1779Z" fill="#62BBFE"/>
<path d="M31.7085 39.7132C32.2344 39.9716 32.7603 40.2301 33.3022 40.4964C34.6385 41.3223 34.6385 41.3223 35.8335 40.7976C36.1222 40.5988 36.411 40.4 36.7085 40.1951C38.2736 39.4408 40.0038 39.4527 41.7085 39.7132C42.7566 40.1647 42.7566 40.1647 43.7085 41.1591C44.0213 42.655 43.9884 44.1391 43.9741 45.6607C43.976 46.1034 43.9779 46.5461 43.9799 47.0022C43.9813 47.9385 43.9776 48.8748 43.9692 49.811C43.9585 51.2436 43.9691 52.675 43.9819 54.1075C43.9806 55.0172 43.978 55.9269 43.9741 56.8365C43.9781 57.2648 43.9822 57.6932 43.9864 58.1344C43.9399 61.0863 43.9399 61.0863 42.8012 62.6402C41.2163 63.6408 40.0629 63.5216 38.2085 63.3301C36.9897 62.8481 36.9897 62.8481 36.2085 62.3661C36.2085 62.048 36.2085 61.7299 36.2085 61.4021C35.8475 61.6407 35.4866 61.8793 35.1147 62.1251C32.514 63.3756 29.5252 63.1502 26.7085 62.8481C23.7254 61.5701 21.0834 58.7512 19.6186 55.9272C18.6551 52.9373 18.6198 49.2107 19.9272 46.3102C22.5027 42.1341 26.6091 39.282 31.7085 39.7132ZM27.7085 49.3527C27.0732 51.3341 26.9762 52.2691 27.9272 54.1424C29.4703 55.3396 30.3199 55.4683 32.2553 55.336C33.3107 55.1692 33.3107 55.1692 34.4585 54.3833C35.5135 52.7307 35.5209 51.7423 35.2085 49.8347C34.0651 48.3546 33.3464 47.5632 31.4585 47.1537C29.7208 47.5306 28.9175 48.0902 27.7085 49.3527Z" fill="#62BBFE"/>
<path d="M120.958 39.9843C123.204 41.2831 125.038 43.2411 126.208 45.4969C126.677 50.5124 126.677 50.5124 125.271 52.8169C123.594 54.1953 122.655 54.2306 120.486 54.2196C119.948 54.218 119.409 54.2164 118.855 54.2148C118.291 54.2108 117.727 54.2068 117.146 54.2026C116.578 54.2004 116.01 54.1983 115.425 54.196C114.02 54.1903 112.614 54.1824 111.208 54.1725C111.208 54.6496 111.208 55.1268 111.208 55.6184C114.017 56.7012 116.552 56.8109 119.505 56.4035C122.919 55.9342 122.919 55.9342 124.521 56.8535C125.407 58.3675 125.505 59.2065 125.208 60.9202C123.766 62.9225 122.098 63.2636 119.708 63.812C115.424 64.1708 110.827 64.4588 107.208 61.8841C104.561 59.5278 102.435 56.9394 101.992 53.4081C101.987 49.0645 102.105 46.2015 105.238 42.9985C109.437 39.1694 115.407 37.5774 120.958 39.9843ZM111.958 47.3344C111.067 48.3744 111.067 48.3744 111.208 49.8347C113.518 49.8347 115.828 49.8347 118.208 49.8347C118.503 47.4816 118.503 47.4816 117.208 46.4608C114.381 46.1499 114.381 46.1499 111.958 47.3344Z" fill="#5EB9FE"/>
<path d="M52.5932 39.5343C54.2005 39.792 55.0942 40.5323 56.2084 41.641C56.6106 41.3229 57.0128 41.0048 57.4272 40.6771C59.4456 39.3846 61.3576 39.3749 63.7084 39.7131C67.4711 41.1082 69.8912 43.3968 71.6205 46.86C72.5675 49.5238 72.505 52.3188 72.5209 55.1063C72.5263 55.6376 72.5316 56.1689 72.5372 56.7164C72.4964 58.9562 72.4531 60.4947 71.3139 62.4753C69.801 63.6451 69.0184 63.5918 67.1596 63.475C66.0055 63.2991 65.1598 63.0264 64.2084 62.3661C63.5529 61.1022 63.6367 60.1369 63.6205 58.723C63.6086 58.189 63.5967 57.655 63.5844 57.1048C63.5629 55.9753 63.5473 54.8456 63.5375 53.7159C63.5237 53.1813 63.5098 52.6466 63.4955 52.0958C63.4882 51.6047 63.4809 51.1136 63.4734 50.6076C63.3226 49.2981 63.3226 49.2981 62.2842 48.4715C60.8064 47.6957 59.8668 47.6736 58.2084 47.9068C56.881 48.9057 56.2805 49.482 55.9513 51.0924C55.9452 51.7904 55.9452 51.7904 55.9389 52.5025C55.9273 53.0116 55.9157 53.5208 55.9037 54.0454C55.9012 54.5744 55.8986 55.1034 55.8959 55.6485C55.8832 56.6985 55.8664 57.7485 55.8451 58.7983C55.8422 59.2631 55.8392 59.7279 55.8361 60.2067C55.7084 61.4021 55.7084 61.4021 54.7084 62.8481C53.4018 63.2679 52.5549 63.421 51.2084 63.4505C50.8681 63.4629 50.5278 63.4754 50.1772 63.4882C48.8921 63.2784 48.5185 62.8549 47.7084 61.8841C47.5179 60.9331 47.5179 60.9331 47.5143 59.8404C47.5096 59.4302 47.5049 59.0201 47.5 58.5975C47.503 58.1562 47.5061 57.7148 47.5092 57.2601C47.5078 56.8056 47.5063 56.351 47.5049 55.8827C47.5038 54.9217 47.5066 53.9607 47.5129 52.9998C47.5209 51.5272 47.5129 50.0552 47.5033 48.5826C47.5043 47.6494 47.5063 46.7162 47.5092 45.783C47.5062 45.3417 47.5031 44.9004 47.5 44.4457C47.5047 44.0355 47.5095 43.6253 47.5143 43.2028C47.5155 42.8422 47.5167 42.4816 47.5179 42.11C48.054 39.4337 50.2286 39.4711 52.5932 39.5343Z" fill="#57B4FA"/>
<path d="M132.005 30.3165C132.725 30.3304 132.725 30.3304 133.458 30.3447C133.938 30.3453 134.417 30.346 134.912 30.3466C136.442 30.5932 136.797 30.813 137.708 32.0015C137.896 33.2818 137.896 33.2818 137.895 34.8416C137.899 35.7174 137.899 35.7174 137.904 36.6108C137.899 37.2419 137.895 37.873 137.89 38.5233C137.89 39.1769 137.89 39.8305 137.891 40.4842C137.891 41.8537 137.886 43.223 137.877 44.5925C137.865 46.3478 137.865 48.1029 137.868 49.8582C137.87 51.2078 137.867 52.5573 137.862 53.9069C137.859 54.8689 137.86 55.8308 137.86 56.7928C137.855 57.3767 137.851 57.9605 137.846 58.562C137.843 59.0768 137.841 59.5915 137.839 60.1218C137.708 61.4021 137.708 61.4021 136.708 62.8481C134.901 63.4289 133.071 63.7918 131.208 63.33C129.456 61.5873 128.958 60.4787 128.958 58.0668C128.953 57.5038 128.948 56.9409 128.943 56.3609C128.949 55.7574 128.955 55.1539 128.96 54.5321C128.96 53.9089 128.959 53.2857 128.958 52.6436C128.957 51.3272 128.964 50.0111 128.975 48.6948C128.989 47.0097 128.988 45.3251 128.982 43.64C128.977 42.0291 128.985 40.4184 128.992 38.8076C128.99 38.203 128.989 37.5985 128.987 36.9757C128.997 36.1336 128.997 36.1336 129.006 35.2745C129.009 34.7809 129.012 34.2873 129.015 33.7787C129.307 31.8217 129.939 30.6973 132.005 30.3165Z" fill="#62BAFE"/>
<path d="M5.09319 39.5663C6.56039 39.7595 7.54582 40.2914 8.70842 41.1591C9.01779 40.9205 9.32717 40.6819 9.64592 40.4361C12.3052 39.2056 15.002 39.3177 17.7709 40.2252C18.7084 41.1591 18.7084 41.1591 18.9584 42.7556C18.687 44.6849 18.4112 45.8539 17.2084 47.4248C15.3959 47.8766 15.3959 47.8766 13.7084 47.9068C13.5434 47.7477 13.3784 47.5886 13.2084 47.4248C10.6959 47.562 10.6959 47.562 8.70842 48.8707C8.5389 50.1565 8.5389 50.1565 8.53654 51.6553C8.51431 52.4889 8.51431 52.4889 8.49162 53.3394C8.48067 53.9224 8.46971 54.5055 8.45842 55.1063C8.43676 56.2555 8.41091 57.4046 8.38029 58.5536C8.37095 59.0649 8.3616 59.5761 8.35197 60.1029C8.20842 61.4021 8.20842 61.4021 7.20842 62.8481C5.90178 63.2679 5.05486 63.421 3.70842 63.4505C3.36811 63.463 3.02779 63.4754 2.67717 63.4882C1.39208 63.2784 1.01848 62.8549 0.20842 61.8841C0.0179443 60.9331 0.0179443 60.9331 0.014328 59.8404C0.00959976 59.4302 0.00487152 59.0201 0 58.5975C0.00303634 58.1562 0.00607269 57.7148 0.00920105 57.2601C0.00776596 56.8056 0.00633087 56.3511 0.00485229 55.8827C0.00383157 54.9217 0.00659933 53.9607 0.0128632 52.9998C0.0208894 51.5272 0.0129401 50.0552 0.00334167 48.5827C0.00433288 47.6494 0.0062547 46.7162 0.00920105 45.783C0.0061647 45.3417 0.00312835 44.9004 0 44.4457C0.00472824 44.0355 0.00945648 43.6254 0.014328 43.2028C0.0155214 42.8422 0.0167148 42.4816 0.0179443 42.11C0.557555 39.416 2.72547 39.4993 5.09319 39.5663Z" fill="#62BBFE"/>
</svg>
